<svg xmlns="http://www.w3.org/2000/svg" viewBox="0 0 100 100" fill="none" stroke="currentColor" stroke-width="4" stroke-linecap="round" stroke-linejoin="round">
  <!-- Sheep head micro mark matching AHA "Sheep Min" hoodie design -->
  <!-- Face outline (egg shape, slightly wider at top) -->
  <path d="M50 85 C30 85, 18 70, 18 55 C18 40, 28 28, 50 28 C72 28, 82 40, 82 55 C82 70, 70 85, 50 85 Z"/>
  <!-- Left ear (floppy, angled outward) -->
  <path d="M22 45 C14 38, 6 32, 4 24 C2 16, 8 12, 16 16 C20 18, 20 28, 22 38"/>
  <!-- Right ear (floppy, angled outward) -->
  <path d="M78 45 C86 38, 94 32, 96 24 C98 16, 92 12, 84 16 C80 18, 80 28, 78 38"/>
</svg>
